<svg xmlns="http://www.w3.org/2000/svg" viewBox="0 0 500 350" fill="none">
    <rect width="500" height="350" rx="12" fill="#00112c"/>
    <path d="M0 50h500M0 100h500M0 150h500M0 200h500M0 250h500M0 300h500M50 0v350M100 0v350M150 0v350M200 0v350M250 0v350M300 0v350M350 0v350M400 0v350M450 0v350" stroke="#0073ff" stroke-width="0.5" opacity="0.1"/>
    <path d="M80 80h340v190H80z" stroke="#0073ff" stroke-width="1" opacity="0.5"/>
    <path d="M80 160h120M200 80v80M320 80v110M320 230v40M200 210h220M200 160v110" stroke="#fff" stroke-width="2" stroke-linecap="round" opacity="0.8"/>
    <rect x="110" y="100" width="60" height="40" rx="2" fill="#0073ff" fill-opacity="0.2" stroke="#0073ff" stroke-width="1"/>
    <text x="250" y="315" font-family="Montserrat, sans-serif" font-size="10" fill="#fff" text-anchor="middle" font-weight="600" letter-spacing="3" opacity="0.4">DETALHAMENTO ARQUITETÔNICO</text>
    <circle cx="420" cy="270" r="15" stroke="#fff" stroke-width="1" opacity="0.3"/>
    <path d="M420 255v30M405 270h30" stroke="#fff" stroke-width="1" opacity="0.3"/>
    <rect x="20" y="20" width="460" height="310" stroke="#0073ff" stroke-width="0.5" opacity="0.2"/>
</svg>